<?xml version="1.0" encoding="UTF-8" standalone="no"?>
<!-- Generator: Adobe Illustrator 19.0.0, SVG Export Plug-In . SVG Version: 6.00 Build 0)  -->

<svg
   xmlns:dc="http://purl.org/dc/elements/1.1/"
   xmlns:cc="http://creativecommons.org/ns#"
   xmlns:rdf="http://www.w3.org/1999/02/22-rdf-syntax-ns#"
   xmlns:svg="http://www.w3.org/2000/svg"
   xmlns="http://www.w3.org/2000/svg"
   xmlns:sodipodi="http://sodipodi.sourceforge.net/DTD/sodipodi-0.dtd"
   xmlns:inkscape="http://www.inkscape.org/namespaces/inkscape"
   version="1.1"
   id="Layer_1"
   x="0px"
   y="0px"
   viewBox="0 0 356.923 356.923"
   style="enable-background:new 0 0 356.923 356.923;"
   xml:space="preserve"
   inkscape:version="0.91 r13725"
   sodipodi:docname="bar-chart.svg"
   inkscape:export-filename="/home/victor/workspace/ifmo/master-thesis/thesis/bar-chart.svg.png"
   inkscape:export-xdpi="90"
   inkscape:export-ydpi="90"><metadata
     id="metadata173"><rdf:RDF><cc:Work
         rdf:about=""><dc:format>image/svg+xml</dc:format><dc:type
           rdf:resource="http://purl.org/dc/dcmitype/StillImage" /></cc:Work></rdf:RDF></metadata><defs
     id="defs171" /><sodipodi:namedview
     pagecolor="#ffffff"
     bordercolor="#666666"
     borderopacity="1"
     objecttolerance="10"
     gridtolerance="10"
     guidetolerance="10"
     inkscape:pageopacity="0"
     inkscape:pageshadow="2"
     inkscape:window-width="1859"
     inkscape:window-height="1176"
     id="namedview169"
     showgrid="false"
     inkscape:zoom="2.6448281"
     inkscape:cx="96.344299"
     inkscape:cy="243.60912"
     inkscape:window-x="61"
     inkscape:window-y="24"
     inkscape:window-maximized="1"
     inkscape:current-layer="Layer_1" /><circle
     style="fill:#eb3b5a;fill-opacity:1"
     cx="178.462"
     cy="178.462"
     r="178.462"
     id="circle3" /><rect
     x="71.705"
     y="249.526"
     style="fill:#FFB733;"
     width="45.068"
     height="7.434"
     id="rect5" /><rect
     x="71.705"
     y="248.985"
     style="fill:#fed330;fill-opacity:1"
     width="45.068"
     height="6.658"
     id="rect7" /><rect
     x="71.705"
     y="241.551"
     style="fill:#FFB733;"
     width="45.068"
     height="7.434"
     id="rect9" /><rect
     x="71.705"
     y="241.009"
     style="fill:#fed330;fill-opacity:1"
     width="45.068"
     height="6.663"
     id="rect11" /><rect
     x="240.172"
     y="249.526"
     style="fill:#FFB733;"
     width="45.066"
     height="7.434"
     id="rect13" /><rect
     x="240.172"
     y="248.985"
     style="fill:#fed330;fill-opacity:1"
     width="45.066"
     height="6.658"
     id="rect15" /><rect
     x="240.172"
     y="241.551"
     style="fill:#FFB733;"
     width="45.066"
     height="7.434"
     id="rect17" /><rect
     x="240.172"
     y="241.009"
     style="fill:#fed330;fill-opacity:1"
     width="45.066"
     height="6.663"
     id="rect19" /><rect
     x="240.172"
     y="233.575"
     style="fill:#FFB733;"
     width="45.066"
     height="7.434"
     id="rect21" /><rect
     x="240.172"
     y="233.034"
     style="fill:#fed330;fill-opacity:1"
     width="45.066"
     height="6.661"
     id="rect23" /><rect
     x="240.172"
     y="225.6"
     style="fill:#FFB733;"
     width="45.066"
     height="7.434"
     id="rect25" /><rect
     x="240.172"
     y="225.058"
     style="fill:#fed330;fill-opacity:1"
     width="45.066"
     height="6.663"
     id="rect27" /><rect
     x="240.172"
     y="217.625"
     style="fill:#FFB733;"
     width="45.066"
     height="7.434"
     id="rect29" /><rect
     x="240.172"
     y="217.108"
     style="fill:#fed330;fill-opacity:1"
     width="45.066"
     height="6.661"
     id="rect31" /><rect
     x="240.172"
     y="209.649"
     style="fill:#FFB733;"
     width="45.066"
     height="7.434"
     id="rect33" /><rect
     x="240.172"
     y="209.132"
     style="fill:#fed330;fill-opacity:1"
     width="45.066"
     height="6.663"
     id="rect35" /><rect
     x="240.172"
     y="201.698"
     style="fill:#FFB733;"
     width="45.066"
     height="7.434"
     id="rect37" /><rect
     x="240.172"
     y="201.157"
     style="fill:#fed330;fill-opacity:1"
     width="45.066"
     height="6.661"
     id="rect39" /><rect
     x="240.172"
     y="193.723"
     style="fill:#FFB733;"
     width="45.066"
     height="7.434"
     id="rect41" /><rect
     x="240.172"
     y="193.182"
     style="fill:#fed330;fill-opacity:1"
     width="45.066"
     height="6.663"
     id="rect43" /><rect
     x="240.172"
     y="185.748"
     style="fill:#FFB733;"
     width="45.066"
     height="7.434"
     id="rect45" /><rect
     x="240.172"
     y="185.206"
     style="fill:#fed330;fill-opacity:1"
     width="45.066"
     height="6.661"
     id="rect47" /><rect
     x="240.172"
     y="177.772"
     style="fill:#FFB733;"
     width="45.066"
     height="7.434"
     id="rect49" /><rect
     x="240.172"
     y="177.231"
     style="fill:#fed330;fill-opacity:1"
     width="45.066"
     height="6.661"
     id="rect51" /><rect
     x="240.172"
     y="169.797"
     style="fill:#FFB733;"
     width="45.066"
     height="7.434"
     id="rect53" /><rect
     x="240.172"
     y="169.28"
     style="fill:#fed330;fill-opacity:1"
     width="45.066"
     height="6.658"
     id="rect55" /><rect
     x="240.172"
     y="161.822"
     style="fill:#FFB733;"
     width="45.066"
     height="7.434"
     id="rect57" /><rect
     x="240.172"
     y="161.305"
     style="fill:#fed330;fill-opacity:1"
     width="45.066"
     height="6.666"
     id="rect59" /><rect
     x="240.172"
     y="153.846"
     style="fill:#FFB733;"
     width="45.066"
     height="7.434"
     id="rect61" /><rect
     x="240.172"
     y="153.329"
     style="fill:#fed330;fill-opacity:1"
     width="45.066"
     height="6.658"
     id="rect63" /><rect
     x="240.172"
     y="145.895"
     style="fill:#ffb733;fill-opacity:1"
     width="45.066"
     height="7.434"
     id="rect65" /><rect
     x="240.172"
     y="145.354"
     style="fill:#fed330;fill-opacity:1"
     width="45.066"
     height="6.663"
     id="rect67" /><rect
     x="127.852"
     y="249.526"
     style="fill:#FFB733;"
     width="45.071"
     height="7.434"
     id="rect69" /><rect
     x="127.852"
     y="248.985"
     style="fill:#fed330;fill-opacity:1"
     width="45.071"
     height="6.658"
     id="rect71" /><rect
     x="127.852"
     y="241.551"
     style="fill:#FFB733;"
     width="45.071"
     height="7.434"
     id="rect73" /><rect
     x="127.852"
     y="241.009"
     style="fill:#fed330;fill-opacity:1"
     width="45.071"
     height="6.663"
     id="rect75" /><rect
     x="127.852"
     y="233.575"
     style="fill:#FFB733;"
     width="45.071"
     height="7.434"
     id="rect77" /><rect
     x="127.852"
     y="233.034"
     style="fill:#fed330;fill-opacity:1"
     width="45.071"
     height="6.666"
     id="rect79" /><rect
     x="127.852"
     y="225.6"
     style="fill:#FFB733;"
     width="45.071"
     height="7.434"
     id="rect81" /><rect
     x="127.852"
     y="225.083"
     style="fill:#fed330;fill-opacity:1"
     width="45.071"
     height="6.663"
     id="rect83" /><rect
     x="127.852"
     y="217.625"
     style="fill:#FFB733;"
     width="45.071"
     height="7.434"
     id="rect85" /><rect
     x="127.852"
     y="217.108"
     style="fill:#fed330;fill-opacity:1"
     width="45.071"
     height="6.663"
     id="rect87" /><rect
     x="127.852"
     y="209.674"
     style="fill:#FFB733;"
     width="45.071"
     height="7.434"
     id="rect89" /><rect
     x="127.852"
     y="209.132"
     style="fill:#fed330;fill-opacity:1"
     width="45.071"
     height="6.663"
     id="rect91" /><rect
     x="184.025"
     y="249.526"
     style="fill:#FFB733;"
     width="45.066"
     height="7.434"
     id="rect93" /><rect
     x="184.025"
     y="248.985"
     style="fill:#fed330;fill-opacity:1"
     width="45.066"
     height="6.658"
     id="rect95" /><rect
     x="184.025"
     y="241.551"
     style="fill:#FFB733;"
     width="45.066"
     height="7.434"
     id="rect97" /><rect
     x="184.025"
     y="241.009"
     style="fill:#fed330;fill-opacity:1"
     width="45.066"
     height="6.663"
     id="rect99" /><rect
     x="184.025"
     y="233.575"
     style="fill:#FFB733;"
     width="45.066"
     height="7.434"
     id="rect101" /><rect
     x="184.025"
     y="233.034"
     style="fill:#fed330;fill-opacity:1"
     width="45.066"
     height="6.666"
     id="rect103" /><rect
     x="184.025"
     y="225.6"
     style="fill:#FFB733;"
     width="45.066"
     height="7.434"
     id="rect105" /><rect
     x="184.025"
     y="225.083"
     style="fill:#fed330;fill-opacity:1"
     width="45.066"
     height="6.663"
     id="rect107" /><rect
     x="184.025"
     y="217.625"
     style="fill:#FFB733;"
     width="45.066"
     height="7.434"
     id="rect109" /><rect
     x="184.025"
     y="217.108"
     style="fill:#fed330;fill-opacity:1"
     width="45.066"
     height="6.663"
     id="rect111" /><rect
     x="184.025"
     y="209.674"
     style="fill:#FFB733;"
     width="45.066"
     height="7.434"
     id="rect113" /><rect
     x="184.025"
     y="209.132"
     style="fill:#fed330;fill-opacity:1"
     width="45.066"
     height="6.663"
     id="rect115" /><rect
     x="184.025"
     y="201.698"
     style="fill:#FFB733;"
     width="45.066"
     height="7.434"
     id="rect117" /><rect
     x="184.025"
     y="201.157"
     style="fill:#fed330;fill-opacity:1"
     width="45.066"
     height="6.663"
     id="rect119" /><rect
     x="184.025"
     y="193.723"
     style="fill:#FFB733;"
     width="45.066"
     height="7.434"
     id="rect121" /><rect
     x="184.025"
     y="193.182"
     style="fill:#fed330;fill-opacity:1"
     width="45.066"
     height="6.661"
     id="rect123" /><rect
     x="184.025"
     y="185.748"
     style="fill:#FFB733;"
     width="45.066"
     height="7.434"
     id="rect125" /><rect
     x="184.025"
     y="185.231"
     style="fill:#fed330;fill-opacity:1"
     width="45.066"
     height="6.658"
     id="rect127" /><rect
     x="184.025"
     y="177.772"
     style="fill:#FFB733;"
     width="45.066"
     height="7.434"
     id="rect129" /><rect
     x="184.025"
     y="177.255"
     style="fill:#fed330;fill-opacity:1"
     width="45.066"
     height="6.661"
     id="rect131" /><g
     id="g133"><path
       style="fill:#FFFFFF;"
       d="M71.692,215.749c-2.518,0-4.682-1.797-5.145-4.278c-0.524-2.841,1.359-5.578,4.192-6.105   c44.455-8.256,92.615-29.952,135.616-61.1c27.404-19.847,51.37-42.326,71.23-66.821c1.002-1.233,2.486-1.937,4.071-1.937   c1.194,0,2.366,0.416,3.296,1.172c1.083,0.879,1.762,2.129,1.905,3.522c0.148,1.391-0.258,2.757-1.14,3.842   c-20.441,25.204-45.076,48.32-73.221,68.704c-44.234,32.042-93.898,54.385-139.845,62.919   C72.332,215.722,72.01,215.749,71.692,215.749z"
       id="path135" /><path
       style="fill:#FFFFFF;"
       d="M285.221,120.187c-2.686,0-4.921-2.018-5.201-4.692l-3.03-28.999l-28.997,3.025   c-0.182,0.022-0.367,0.03-0.549,0.03c-2.688,0-4.923-2.016-5.204-4.689c-0.148-1.393,0.258-2.757,1.14-3.845   c0.881-1.086,2.134-1.765,3.527-1.908l39.412-4.118l4.118,39.417c0.298,2.873-1.794,5.452-4.665,5.753   C285.588,120.177,285.398,120.187,285.221,120.187z"
       id="path137" /></g><g
     id="g139" /><g
     id="g141" /><g
     id="g143" /><g
     id="g145" /><g
     id="g147" /><g
     id="g149" /><g
     id="g151" /><g
     id="g153" /><g
     id="g155" /><g
     id="g157" /><g
     id="g159" /><g
     id="g161" /><g
     id="g163" /><g
     id="g165" /><g
     id="g167" /></svg>