<?xml version="1.0" encoding="UTF-8" standalone="no"?>
<!-- Generator: Adobe Illustrator 19.0.0, SVG Export Plug-In . SVG Version: 6.00 Build 0)  -->

<svg
   xmlns:dc="http://purl.org/dc/elements/1.1/"
   xmlns:cc="http://creativecommons.org/ns#"
   xmlns:rdf="http://www.w3.org/1999/02/22-rdf-syntax-ns#"
   xmlns:svg="http://www.w3.org/2000/svg"
   xmlns="http://www.w3.org/2000/svg"
   xmlns:sodipodi="http://sodipodi.sourceforge.net/DTD/sodipodi-0.dtd"
   xmlns:inkscape="http://www.inkscape.org/namespaces/inkscape"
   version="1.1"
   id="Layer_1"
   x="0px"
   y="0px"
   viewBox="0 0 512 512"
   style="enable-background:new 0 0 512 512;"
   xml:space="preserve"
   inkscape:version="0.91 r13725"
   sodipodi:docname="hourglass.svg"
   inkscape:export-filename="/home/victor/workspace/ifmo/master-thesis/thesis/hourglass.svg.png"
   inkscape:export-xdpi="90"
   inkscape:export-ydpi="90"><metadata
     id="metadata59"><rdf:RDF><cc:Work
         rdf:about=""><dc:format>image/svg+xml</dc:format><dc:type
           rdf:resource="http://purl.org/dc/dcmitype/StillImage" /></cc:Work></rdf:RDF></metadata><defs
     id="defs57" /><sodipodi:namedview
     pagecolor="#ffffff"
     bordercolor="#666666"
     borderopacity="1"
     objecttolerance="10"
     gridtolerance="10"
     guidetolerance="10"
     inkscape:pageopacity="0"
     inkscape:pageshadow="2"
     inkscape:window-width="1859"
     inkscape:window-height="1176"
     id="namedview55"
     showgrid="false"
     inkscape:zoom="1.84375"
     inkscape:cx="222.28027"
     inkscape:cy="258.89342"
     inkscape:window-x="61"
     inkscape:window-y="24"
     inkscape:window-maximized="1"
     inkscape:current-layer="g9" /><circle
     style="fill:#2d98da;fill-opacity:1"
     cx="256"
     cy="256"
     r="256"
     id="circle3" /><path
     style="fill:#FFFFFF;"
     d="M280.614,238.303c38.62-29.921,54.29-56.266,54.29-104.361v-6.3H177.091v6.3  c0,48.095,15.667,74.44,54.29,104.361c7.846,6.159,15.974,9.961,15.974,17.741c0,7.739-8.125,11.543-15.974,17.654  c-38.62,29.975-54.29,56.269-54.29,104.412v6.295h157.814v-6.295c0-48.143-15.67-74.437-54.29-104.412  c-7.844-6.111-15.969-9.915-15.969-17.654C264.645,248.266,272.771,244.462,280.614,238.303z"
     id="path7" /><g
     id="g9"><path
       style="fill:#4b6584;fill-opacity:1"
       d="M189.169,133.921c0,1.395,0.479,2.729,1.546,3.799c1.047,1.068,2.417,1.58,3.796,1.58h122.962   c1.357,0,2.721-0.512,3.781-1.58c1.016-1.07,1.579-2.404,1.579-3.799v-6.28H189.169V133.921z"
       id="path11" /><path
       style="fill:#4b6584;fill-opacity:1"
       d="M175.296,127.642h161.408c2.296,0,4.588-0.881,6.315-2.634c1.789-1.766,2.647-4.032,2.647-6.359   c0-2.266-0.858-4.577-2.647-6.292c-1.728-1.764-4.017-2.642-6.315-2.642H175.296c-2.278,0-4.603,0.878-6.331,2.642   c-1.748,1.715-2.634,4.027-2.634,6.292c0,2.327,0.886,4.593,2.634,6.359C170.691,126.761,173.015,127.642,175.296,127.642z"
       id="path13" /><path
       style="fill:#4b6584;fill-opacity:1"
       d="M336.701,384.404H175.293c-2.278,0-4.603,0.835-6.331,2.598c-1.748,1.756-2.634,4.024-2.634,6.349   c0,2.26,0.886,4.577,2.634,6.341c1.728,1.715,4.052,2.593,6.331,2.593h161.408c2.296,0,4.588-0.878,6.315-2.593   c1.789-1.761,2.647-4.081,2.647-6.341c0-2.324-0.858-4.595-2.647-6.349C341.289,385.239,339,384.404,336.701,384.404z"
       id="path15" /></g><rect
     x="189.169"
     y="127.642"
     style="fill:#1A1B1C;"
     width="133.658"
     height="6.28"
     id="rect17" /><path
     style="fill:#CEE2F2;"
     d="M280.614,238.303c38.62-29.921,54.29-56.266,54.29-104.361v-6.3H177.091v6.3  c0,48.095,15.667,74.44,54.29,104.361c7.846,6.159,15.974,9.961,15.974,17.741c0,7.739-8.125,11.543-15.974,17.654  c-38.62,29.975-54.29,56.269-54.29,104.412v6.295h157.814v-6.295c0-48.143-15.67-74.437-54.29-104.412  c-7.844-6.111-15.969-9.915-15.969-17.654C264.645,248.266,272.771,244.462,280.614,238.303z M258.396,256.044  c0,9.83,8.63,15.252,15.506,20.393c0.906,0.694,1.882,1.434,2.916,2.26c38.042,30.075,46.024,56.694,46.024,99.412H189.164  c0-42.721,7.977-69.338,46.019-99.412c1.037-0.827,2.004-1.564,2.911-2.26c6.881-5.143,15.519-10.563,15.519-20.393  c0-9.864-8.635-15.286-15.519-20.426c-0.906-0.694-1.874-1.482-2.911-2.222c-38.042-30.164-46.019-56.689-46.019-99.451h133.678  c0,42.765-7.979,69.286-46.024,99.451c-1.032,0.742-2.01,1.528-2.916,2.222C267.026,240.758,258.396,246.18,258.396,256.044z"
     id="path19" /><rect
     x="189.169"
     y="127.642"
     style="fill:#B8D1E6;"
     width="133.658"
     height="6.28"
     id="rect21" /><path
     style="fill:#fed330;fill-opacity:1"
     d="M322.002,358.426c-24.054-0.374-43.656-3.948-61.929-10.616c0.512-0.438,1.257-0.837,2.099-1.047  c0,0,7.818-2.03,11.159-5.294c3.343-3.279,5.015-7.306,5.015-12.088c0-4.27-1.321-7.759-3.976-10.506  c-0.512-0.517-1.257-0.975-1.756-1.644c-1.912-2.57-1.579-13.893,0.202-14.861c0.169-0.092,0.822-0.282,0.822-0.282  c1.556-0.174,2.388-1.523,1.848-2.99c0,0-1.638-4.439-4.511-6.799c-2.857-2.368-8.781-3.681-8.781-3.681  c-1.539-0.346-2.793-1.503-2.793-2.57c0-1.06-0.886-1.925-1.72-2.34c-1.331-0.653-1.216-14.999-0.064-25.713  c0.399-3.715,1.272-6.907,2.245-8.625c2.76-5.908,8.886-9.905,14.031-13.752c0.906-0.694,1.882-1.49,2.908-2.214  c13.161-10.452,22.733-20.444,29.609-30.843c-15.782,2.307-32.758,3.564-50.422,3.564c-17.669,0-34.632-1.257-50.422-3.564  c6.881,10.399,16.445,20.39,29.609,30.843c1.024,0.727,2.01,1.521,2.908,2.214c5.148,3.845,11.279,7.841,14.031,13.752  c0.975,1.718,1.833,4.91,2.248,8.625c1.152,10.263,1.446,25.277-0.108,25.969c-1.034,0.463-1.495,1.651-1.495,2.084  c0,1.068-1.254,2.232-2.788,2.586c0,0-6.659,1.518-9.818,4.452c-3.146,2.941-4.726,6.579-4.726,10.913  c0,4.265,1.39,7.895,4.186,10.895c2.78,2.99,10.46,5.737,10.46,5.737c1.475,0.532,2.685,2.248,2.685,3.82v10.865  c0,1.564-1.119,2.22-2.483,1.446c0,0-0.658-0.374-2.007-1.905c-1.336-1.523-1.787-2.788-1.787-2.788  c-0.525-1.482-2.235-2.57-3.789-2.422l-6.267,0.589c-1.556,0.148-2.435,1.482-1.948,2.97c0,0,1.987,6.021,5.056,9.011  c0.719,2.888,0.896,6.561,0.12,9.533c-14.833,4.142-30.892,6.39-49.672,6.676c-0.532,6.216-0.832,12.677-0.832,19.684h133.678  C322.839,371.103,322.529,364.641,322.002,358.426z M259.407,299.599c0-1.579,1.065-2.135,2.373-1.265l1.874,2.171  c0.689,1.426,2.514,2.429,4.081,2.255l0.612-0.069c1.748,2.527,2.253,12.022,1.833,13.548c-3.709-1.805-8.051-3.159-8.051-3.159  c-1.495-0.479-2.721-2.15-2.721-3.715L259.407,299.599L259.407,299.599z M259.407,326.159c0-1.572,1.213-2.429,2.696-1.91  c0,0,2.022,0.724,3.231,1.994c1.203,1.285,1.805,2.811,1.805,4.572c0,1.974-0.714,3.699-2.148,5.156  c-1.434,1.459-2.859,1.902-2.859,1.902c-1.495,0.466-2.721-0.428-2.721-1.999v-9.715H259.407z M250.207,309.053  c0,0-0.899-0.435-1.874-1.651c-0.97-1.188-1.467-2.488-1.467-3.886c0-1.531,0.535-2.934,1.615-4.193  c1.06-1.262,1.684-1.551,1.684-1.551c1.431-0.63,2.606,0.136,2.606,1.7v7.985C252.772,309.033,251.62,309.74,250.207,309.053z   M242.335,344.174c3.412,1.828,7.654,2.829,7.654,2.829c0.737,0.177,1.403,0.474,1.902,0.806c-3.364,1.229-6.776,2.353-10.245,3.372  C241.275,348.721,241.692,346.002,242.335,344.174z"
     id="path23" /><g
     id="g25" /><g
     id="g27" /><g
     id="g29" /><g
     id="g31" /><g
     id="g33" /><g
     id="g35" /><g
     id="g37" /><g
     id="g39" /><g
     id="g41" /><g
     id="g43" /><g
     id="g45" /><g
     id="g47" /><g
     id="g49" /><g
     id="g51" /><g
     id="g53" /></svg>