<?xml version="1.0" encoding="UTF-8" standalone="no"?>
<!-- Generator: Adobe Illustrator 19.0.0, SVG Export Plug-In . SVG Version: 6.00 Build 0)  -->

<svg
   xmlns:dc="http://purl.org/dc/elements/1.1/"
   xmlns:cc="http://creativecommons.org/ns#"
   xmlns:rdf="http://www.w3.org/1999/02/22-rdf-syntax-ns#"
   xmlns:svg="http://www.w3.org/2000/svg"
   xmlns="http://www.w3.org/2000/svg"
   xmlns:sodipodi="http://sodipodi.sourceforge.net/DTD/sodipodi-0.dtd"
   xmlns:inkscape="http://www.inkscape.org/namespaces/inkscape"
   version="1.1"
   id="Layer_1"
   x="0px"
   y="0px"
   viewBox="0 0 512.002 512.002"
   style="enable-background:new 0 0 512.002 512.002;"
   xml:space="preserve"
   width="512px"
   height="512px"
   inkscape:version="0.91 r13725"
   sodipodi:docname="line-graph.svg"
   inkscape:export-filename="/home/victor/workspace/ifmo/master-thesis/thesis/line-graph.svg.png"
   inkscape:export-xdpi="90"
   inkscape:export-ydpi="90"><metadata
     id="metadata73"><rdf:RDF><cc:Work
         rdf:about=""><dc:format>image/svg+xml</dc:format><dc:type
           rdf:resource="http://purl.org/dc/dcmitype/StillImage" /></cc:Work></rdf:RDF></metadata><defs
     id="defs71" /><sodipodi:namedview
     pagecolor="#ffffff"
     bordercolor="#666666"
     borderopacity="1"
     objecttolerance="10"
     gridtolerance="10"
     guidetolerance="10"
     inkscape:pageopacity="0"
     inkscape:pageshadow="2"
     inkscape:window-width="1859"
     inkscape:window-height="1176"
     id="namedview69"
     showgrid="false"
     inkscape:zoom="0.4609375"
     inkscape:cx="256"
     inkscape:cy="256"
     inkscape:window-x="61"
     inkscape:window-y="24"
     inkscape:window-maximized="1"
     inkscape:current-layer="Layer_1" /><g
     id="g3"><g
       id="g5"><path
         d="M355.885,168.646c-7.566,0-13.721,6.155-13.721,13.721c0,7.566,6.155,13.721,13.721,13.721    c7.566,0,13.721-6.155,13.721-13.721C369.606,174.802,363.451,168.646,355.885,168.646z"
         fill="#FFFFFF"
         id="path7" /></g></g><g
     id="g9"><g
       id="g11"><path
         d="M355.309,281.207c-5.632,0-10.199,4.567-10.199,10.199v29.708c0,5.632,4.567,10.199,10.199,10.199    c5.632,0,10.199-4.567,10.199-10.199v-29.708C365.508,285.773,360.942,281.207,355.309,281.207z"
         fill="#FFFFFF"
         id="path13" /></g></g><g
     id="g15"><g
       id="g17"><path
         d="M355.309,34.318c-5.632,0-10.199,4.567-10.199,10.199v29.708c0,5.633,4.567,10.199,10.199,10.199    c5.632,0,10.199-4.567,10.199-10.199V44.517C365.508,38.885,360.941,34.318,355.309,34.318z"
         fill="#FFFFFF"
         id="path19" /></g></g><g
     id="g21"><g
       id="g23"><path
         d="M355.309,343.696c-5.632,0-10.199,4.567-10.199,10.199v29.709c0,5.632,4.567,10.199,10.199,10.199    c5.632,0,10.199-4.567,10.199-10.199v-29.709C365.508,348.264,360.942,343.696,355.309,343.696z"
         fill="#FFFFFF"
         id="path25" /></g></g><g
     id="g27"><g
       id="g29"><path
         d="M355.309,406.188c-5.632,0-10.199,4.567-10.199,10.199v29.708c0,5.632,4.567,10.199,10.199,10.199    c5.632,0,10.199-4.567,10.199-10.199v-29.708C365.508,410.754,360.942,406.188,355.309,406.188z"
         fill="#FFFFFF"
         id="path31" /></g></g><g
     id="g33"><g
       id="g35"><path
         d="M473.694,236.132c-8.441,0-16.248,2.75-22.586,7.393l-46.191-36.952c3.62-7.303,5.666-15.518,5.666-24.206    c0-26.877-19.49-49.271-45.074-53.834v-21.525c0-5.632-4.567-10.199-10.199-10.199c-5.632,0-10.199,4.567-10.199,10.199v21.731    c-25.019,5.019-43.924,27.154-43.924,53.628c0,3.914,0.421,7.731,1.207,11.414l-85.584,38.384    c-7.025-8.81-17.838-14.473-29.956-14.473c-21.123,0-38.308,17.186-38.308,38.308c0,14.663,8.286,27.424,20.418,33.859    l-17.822,75.482c-0.048,0-0.096-0.004-0.144-0.004c-21.122,0-38.307,17.186-38.307,38.308c0,0.687,0.02,1.371,0.056,2.05    l-42.191,13.038c-6.818-10.614-18.721-17.667-32.246-17.667C17.186,401.068,0,418.254,0,439.376    c0,21.122,17.186,38.308,38.308,38.308s38.308-17.186,38.308-38.308c0-0.387-0.017-0.77-0.03-1.154l42.648-13.179    c6.891,10.196,18.555,16.912,31.761,16.912c21.123,0,38.308-17.186,38.308-38.308c0-13.882-7.423-26.062-18.508-32.782    l18.088-76.61c20.181-1.061,36.276-17.812,36.276-38.253c0-1.72-0.125-3.411-0.346-5.071l85.503-38.347    c7.905,11.882,20.324,20.511,34.793,23.412v22.63c0,5.632,4.567,10.199,10.199,10.199c5.632,0,10.199-4.567,10.199-10.199v-22.424    c10.322-1.841,19.655-6.57,27.113-13.342l45.802,36.641c-1.953,4.594-3.035,9.643-3.035,14.941    c0,21.122,17.186,38.308,38.308,38.308c21.123,0,38.307-17.188,38.307-38.31C512.002,253.317,494.816,236.132,473.694,236.132z     M38.31,457.283c-9.876,0-17.91-8.034-17.91-17.91c0-9.876,8.034-17.91,17.91-17.91c9.876,0,17.91,8.034,17.91,17.91    C56.22,449.249,48.185,457.283,38.31,457.283z M150.997,421.554c-9.875,0-17.909-8.034-17.909-17.91s8.034-17.91,17.909-17.91    c9.876,0,17.91,8.034,17.91,17.91S160.873,421.554,150.997,421.554z M186.852,273.909c-9.876,0-17.91-8.034-17.91-17.91    s8.034-17.91,17.91-17.91c9.876,0,17.91,8.034,17.91,17.91S196.728,273.909,186.852,273.909z M355.885,216.667    c-18.913,0-34.301-15.386-34.301-34.3c0-18.913,15.388-34.301,34.301-34.301c18.913,0,34.3,15.388,34.3,34.301    S374.798,216.667,355.885,216.667z M473.694,292.349c-9.876,0-17.91-8.034-17.91-17.91s8.034-17.91,17.91-17.91    c9.876,0,17.91,8.034,17.91,17.91C491.604,284.316,483.57,292.349,473.694,292.349z"
         fill="#FFFFFF"
         id="path37" /></g></g><g
     id="g39" /><g
     id="g41" /><g
     id="g43" /><g
     id="g45" /><g
     id="g47" /><g
     id="g49" /><g
     id="g51" /><g
     id="g53" /><g
     id="g55" /><g
     id="g57" /><g
     id="g59" /><g
     id="g61" /><g
     id="g63" /><g
     id="g65" /><g
     id="g67" /></svg>