<?xml version="1.0" encoding="UTF-8" standalone="no"?>
<!-- Generator: Adobe Illustrator 19.0.0, SVG Export Plug-In . SVG Version: 6.00 Build 0)  -->

<svg
   xmlns:dc="http://purl.org/dc/elements/1.1/"
   xmlns:cc="http://creativecommons.org/ns#"
   xmlns:rdf="http://www.w3.org/1999/02/22-rdf-syntax-ns#"
   xmlns:svg="http://www.w3.org/2000/svg"
   xmlns="http://www.w3.org/2000/svg"
   xmlns:sodipodi="http://sodipodi.sourceforge.net/DTD/sodipodi-0.dtd"
   xmlns:inkscape="http://www.inkscape.org/namespaces/inkscape"
   version="1.1"
   id="Capa_1"
   x="0px"
   y="0px"
   viewBox="0 0 512 512"
   style="enable-background:new 0 0 512 512;"
   xml:space="preserve"
   inkscape:version="0.91 r13725"
   sodipodi:docname="puzzle.svg"
   inkscape:export-filename="/home/victor/workspace/ifmo/master-thesis/thesis/puzzle.svg.png"
   inkscape:export-xdpi="90"
   inkscape:export-ydpi="90"><metadata
     id="metadata45"><rdf:RDF><cc:Work
         rdf:about=""><dc:format>image/svg+xml</dc:format><dc:type
           rdf:resource="http://purl.org/dc/dcmitype/StillImage" /></cc:Work></rdf:RDF></metadata><defs
     id="defs43" /><sodipodi:namedview
     pagecolor="#ffffff"
     bordercolor="#666666"
     borderopacity="1"
     objecttolerance="10"
     gridtolerance="10"
     guidetolerance="10"
     inkscape:pageopacity="0"
     inkscape:pageshadow="2"
     inkscape:window-width="1859"
     inkscape:window-height="1176"
     id="namedview41"
     showgrid="false"
     inkscape:zoom="0.4609375"
     inkscape:cx="-213.69492"
     inkscape:cy="256"
     inkscape:window-x="61"
     inkscape:window-y="24"
     inkscape:window-maximized="1"
     inkscape:current-layer="Capa_1" /><path
     style="fill:#a55eea;fill-opacity:1"
     d="M467,512H256l-36.563-40.313l-1.875-160.375L256,256l80.624-104.063l136-8.438L512,256v211  C512,491.814,491.814,512,467,512z"
     id="path3" /><path
     style="fill:#fed330;fill-opacity:1"
     d="M256,256l-42.188,39.375L149.124,353.5l-83.5,1.875L0,256V45C0,20.186,20.186,0,45,0h211  l40.313,33.75v136.938L256,256z"
     id="path5" /><path
     style="fill:#45aaf2;fill-opacity:1"
     d="M421,226c0-24.899-20.098-45-45-45s-45,20.101-45,45c0,11.4,4.2,21.901,11.4,30h-83.588h-0.938H256  v-86.4c-8.101,7.2-18.6,11.4-30,11.4c-24.902,0-45-20.099-45-45s20.098-45,45-45c11.4,0,21.899,4.2,30,11.4V0h71.25H467  c24.814,0,45,20.186,45,45v211H409.6C416.8,247.901,421,237.4,421,226z"
     id="path7" /><path
     style="fill:#eb3b5a;fill-opacity:1"
     d="M91,286c0,24.901,20.098,45,45,45s45-20.099,45-45c0-11.4-4.2-21.899-11.4-30H256v86.4  c8.101-7.2,18.6-11.4,30-11.4c24.899,0,45,20.099,45,45s-20.101,45-45,45c-11.4,0-21.899-4.2-30-11.4V512H45  c-24.814,0-45-20.186-45-45V256h102.4C95.2,264.101,91,274.6,91,286z"
     id="path9" /><g
     id="g11" /><g
     id="g13" /><g
     id="g15" /><g
     id="g17" /><g
     id="g19" /><g
     id="g21" /><g
     id="g23" /><g
     id="g25" /><g
     id="g27" /><g
     id="g29" /><g
     id="g31" /><g
     id="g33" /><g
     id="g35" /><g
     id="g37" /><g
     id="g39" /></svg>